<?xml version="1.0" encoding="UTF-8"?><svg id="Layer_2" xmlns="http://www.w3.org/2000/svg" viewBox="0 0 654.29 150"><defs><style>.cls-1{fill:#ec4d3b;}</style></defs><g id="Layer_1-2"><polygon class="cls-1" points="86.78 36.34 58.88 36.34 45.36 58.45 29.06 36.34 .09 36.34 30.48 76.39 0 117.24 27.99 117.24 43.73 94.2 60.75 117.24 89.25 117.24 58.53 76.23 86.78 36.34"/><path class="cls-1" d="M148.77,35.25c-5.58-1.09-11.76-.33-17.14,2.49-2.89,1.51-5.53,3.46-7.88,5.82l-.09-7.22h-23.02v80.9h23.48v-42.95c0-2.26.38-4.3,1.12-6.06.76-1.81,1.79-3.34,3.16-4.71,1.32-1.33,2.91-2.38,4.69-3.14,2.93-1.23,6.2-1.48,9.51-.64,1.26.31,2.32.69,3.16,1.15l3.31,1.81,6.21-25.36-2.37-.93c-1.09-.43-2.46-.83-4.14-1.15Z"/><path class="cls-1" d="M330.17,44.81c-7.08-5.55-15.87-8.64-24.93-8.64h-108.83c-22.35,0-40.53,18.19-40.53,40.54s18.18,40.53,40.53,40.53h108.83c9.06,0,17.85-3.09,24.93-8.63v8.63h23.34V36.34h-23.34v8.47ZM322.84,76.71c0,9.69-7.89,17.58-17.59,17.58h-108.83c-9.7,0-17.59-7.89-17.59-17.58s7.89-17.6,17.59-17.6h108.83c9.7,0,17.59,7.89,17.59,17.6Z"/><path class="cls-1" d="M424.28,88.02c-1.63,2.05-3.41,3.79-5.27,5.15-1.86,1.35-3.84,2.4-5.87,3.1-5.32,1.86-11.2,1.26-15.81-1.65-2.89-1.82-5.22-4.29-6.91-7.35-1.73-3.1-2.56-6.56-2.56-10.57s.85-7.55,2.51-10.67c1.67-3.13,3.88-5.52,6.73-7.31,4.46-2.75,10.26-3.61,16.02-1.38,2.21.85,4.34,2.02,6.3,3.47,1.94,1.43,3.54,3.03,4.77,4.77l2.19,3.08,13.48-16.26-1.2-1.81c-3.32-5-8.04-8.93-14.01-11.72-12.06-5.62-28.31-5.76-40.07,1.44-6.02,3.68-10.82,8.74-14.28,15.04-3.45,6.29-5.21,13.48-5.21,21.34s1.75,15.06,5.21,21.35c3.46,6.31,8.26,11.38,14.28,15.03,6.03,3.69,12.91,5.56,20.46,5.56,6.66,0,13.1-1.41,19.11-4.19,6.06-2.79,10.9-6.52,14.39-11.05l1.41-1.83-13.43-16.4-2.24,2.83Z"/><rect class="cls-1" x="448.72" y="36.34" width="23.34" height="80.9"/><path class="cls-1" d="M460.17,0c-4.17,0-7.57,1.23-10.13,3.66-2.58,2.46-3.89,5.66-3.89,9.51,0,4.06,1.31,7.31,3.88,9.64,2.48,2.25,5.89,3.38,10.14,3.38s7.73-1.23,10.26-3.64c2.59-2.45,3.9-5.61,3.9-9.38,0-4.17-1.31-7.46-3.88-9.8-2.5-2.24-5.96-3.37-10.28-3.37Z"/><path class="cls-1" d="M548.36,38.6c-4.29-2.54-9.61-3.84-15.8-3.84-4.38,0-8.71.95-12.87,2.83-3.04,1.36-5.8,3.08-8.24,5.11l-.11-6.36h-22.86v80.9h23.34v-48.21c0-1.86.35-3.51,1.07-5.03.75-1.57,1.75-2.94,3.08-4.19,1.29-1.21,2.79-2.13,4.59-2.8,1.82-.69,3.84-1.03,6.11-1.03,2.62-.09,4.8.35,6.5,1.28,1.6.87,2.76,2.23,3.55,4.12.89,2.16,1.35,4.96,1.35,8.36v47.51h23.33v-48.79c0-7.19-1.06-13.32-3.15-18.24-2.2-5.11-5.52-9.01-9.88-11.6Z"/><path class="cls-1" d="M631.28,36.34l-.09,5.74c-1.51-1.12-3.13-2.17-4.84-3.11-2.45-1.35-5.15-2.4-8.04-3.13-9.94-2.46-20.59-.74-28.94,4.42-5.87,3.62-10.56,8.64-13.93,14.92-3.35,6.24-5.05,13.44-5.05,21.4s1.73,15.13,5.13,21.29c3.42,6.16,8.13,11.1,14,14.68,5.9,3.59,12.76,5.42,20.39,5.42,4.44,0,8.85-.92,13.11-2.72,2.91-1.25,5.51-2.77,7.78-4.56-.02,4.15-.77,7.63-2.22,10.34-1.41,2.63-3.47,4.55-6.29,5.86-4.62,2.13-11.88,2.75-19.14,1.28-2.6-.52-5.07-1.28-7.36-2.25-2.25-.95-4.32-2.1-6.14-3.39l-2.81-2.01-8.77,18.16,1.8,1.45c3.7,2.96,8.55,5.39,14.43,7.21,5.81,1.78,11.73,2.68,17.59,2.68,6.47,0,12.35-.89,17.48-2.65,5.23-1.81,9.76-4.52,13.45-8.06,3.71-3.54,6.58-7.9,8.54-12.94,1.93-4.97,2.91-10.74,2.91-17.15V36.34h-23.01ZM631.38,76.71c0,4.08-.8,7.71-2.39,10.78-1.56,3.05-3.71,5.38-6.54,7.11h0c-5.66,3.47-13.97,3.46-19.54.01-2.8-1.74-4.95-4.09-6.57-7.2-1.65-3.17-2.45-6.68-2.45-10.71s.82-7.71,2.45-10.84c1.63-3.12,3.79-5.51,6.6-7.29,2.78-1.76,5.95-2.61,9.71-2.61s6.94.84,9.73,2.57c2.76,1.7,4.97,4.12,6.57,7.2,1.62,3.13,2.45,6.82,2.45,10.98Z"/></g></svg>